<svg id="visual" viewBox="0 0 1920 1000" width="1920" height="1000" xmlns="http://www.w3.org/2000/svg" xmlns:xlink="http://www.w3.org/1999/xlink" version="1.1"><rect x="0" y="0" width="1920" height="1000" fill="#0066FF"></rect><path d="M0 129L35.5 132.5C71 136 142 143 213.2 132.5C284.3 122 355.7 94 426.8 92.8C498 91.7 569 117.3 640 121.5C711 125.7 782 108.3 853.2 91.2C924.3 74 995.7 57 1066.8 57C1138 57 1209 74 1280 83.8C1351 93.7 1422 96.3 1493.2 103.7C1564.3 111 1635.7 123 1706.8 124.7C1778 126.3 1849 117.7 1884.5 113.3L1920 109L1920 0L1884.5 0C1849 0 1778 0 1706.8 0C1635.7 0 1564.3 0 1493.2 0C1422 0 1351 0 1280 0C1209 0 1138 0 1066.8 0C995.7 0 924.3 0 853.2 0C782 0 711 0 640 0C569 0 498 0 426.8 0C355.7 0 284.3 0 213.2 0C142 0 71 0 35.5 0L0 0Z" fill="#22cba6" stroke-linecap="round" stroke-linejoin="miter"></path></svg>