<svg id="visual" viewBox="0 0 1500 700" width="1500" height="700" xmlns="http://www.w3.org/2000/svg" xmlns:xlink="http://www.w3.org/1999/xlink" version="1.1"><rect x="0" y="0" width="1500" height="700" fill="#1fd4c1"></rect><path d="M0 90L27.8 92.3C55.7 94.7 111.3 99.3 166.8 92C222.3 84.7 277.7 65.3 333.2 64.7C388.7 64 444.3 82 500 85C555.7 88 611.3 76 666.8 64C722.3 52 777.7 40 833.2 39.8C888.7 39.7 944.3 51.3 1000 58.2C1055.7 65 1111.3 67 1166.8 72.2C1222.3 77.3 1277.7 85.7 1333.2 86.8C1388.7 88 1444.3 82 1472.2 79L1500 76L1500 0L1472.2 0C1444.3 0 1388.7 0 1333.2 0C1277.7 0 1222.3 0 1166.8 0C1111.3 0 1055.7 0 1000 0C944.3 0 888.7 0 833.2 0C777.7 0 722.3 0 666.8 0C611.3 0 555.7 0 500 0C444.3 0 388.7 0 333.2 0C277.7 0 222.3 0 166.8 0C111.3 0 55.7 0 27.8 0L0 0Z" fill="#fc5826" stroke-linecap="round" stroke-linejoin="miter"></path></svg>